<?xml version="1.0" encoding="UTF-8" standalone="no"?>
<!DOCTYPE svg PUBLIC "-//W3C//DTD SVG 1.1//EN" "http://www.w3.org/Graphics/SVG/1.1/DTD/svg11.dtd">
<svg width="100%" height="100%" viewBox="0 0 800 600" version="1.1" xmlns="http://www.w3.org/2000/svg" xmlns:xlink="http://www.w3.org/1999/xlink" xml:space="preserve" xmlns:serif="http://www.serif.com/" style="fill-rule:evenodd;clip-rule:evenodd;stroke-linejoin:round;stroke-miterlimit:2;">
    <path d="M381.957,383.862C382.888,365.426 345.923,449.314 334.466,457.58C320.694,467.518 311.216,463.371 309.978,449.481C306.911,415.092 345.741,358.515 335.638,351.332C335.483,350.386 325.229,369.186 286.677,407.802C268.27,426.24 199.388,422.399 241.359,393.976C274.26,371.695 330.969,275.977 294.661,257.915C265.64,243.478 244.918,224.707 244.918,201.004C244.918,185.207 253.692,170.651 268.427,159.054C268.782,144.893 271.185,109.341 280.159,105.476C289.133,101.612 313.992,126.331 322.273,135.867C333.233,133.68 344.936,132.497 357.089,132.497C369.52,132.497 381.482,133.735 392.653,136.018C398.618,128.737 422.308,104.169 431.314,108.132C440.319,112.096 444.386,147.117 446.684,159.799C460.856,171.272 469.26,185.543 469.26,201.004C469.26,220.276 456.202,237.699 435.195,250.155C390.036,275.719 479.607,293.401 509.912,318.444C540.979,344.117 537.18,380.937 536.348,392.974C574.835,435.646 601.412,449.925 661.982,404.266C683.87,401.952 697.06,417.369 686.826,447.177C648.812,516.168 588.399,494.654 522.273,441.154C511.982,449.307 492.259,451.871 494.983,464.058C496.757,471.996 503.893,481.687 493.723,494.167C488.339,500.774 430.388,509.822 394.933,501.759C354.136,492.482 377.571,476.173 405.312,475.165C400.352,468.797 387.273,446.442 383.736,423.794C381.635,410.333 381.328,396.339 381.957,383.862Z" style="fill:rgb(33,116,149);"/>
    <path d="M450.307,359.249C443.513,357.29 436.592,355.994 429.479,356.534C380.564,360.243 378.782,407.155 388.534,442.65C391.548,453.622 395.709,465.882 403.591,474.424C406.465,477.538 411.325,477.733 414.439,474.86C417.552,471.986 417.748,467.126 414.874,464.012C408.614,457.228 405.732,447.296 403.338,438.583C395.963,411.741 393.65,374.647 430.639,371.843C435.91,371.443 441.02,372.55 446.054,374.001C450.125,375.175 454.383,372.822 455.557,368.751C456.73,364.68 454.378,360.422 450.307,359.249Z"/>
    <g transform="matrix(0.877709,0,0,0.809305,41.4306,46.8407)">
        <path d="M357.997,223.553C356.232,223.738 354.698,225.584 353.159,227.534C349.616,232.02 346.917,238.614 347.634,244.359C348.282,249.546 344.924,254.329 340.141,255.031C335.357,255.734 330.948,252.092 330.3,246.905C328.96,236.173 333.254,223.576 339.872,215.195C345.058,208.626 351.624,204.785 357.63,204.573C363.357,204.372 369.113,207.452 373.819,213.918C378.568,220.443 382.473,230.943 384.341,242.625C385.165,247.783 381.973,252.697 377.217,253.591C372.461,254.486 367.93,251.024 367.106,245.866C365.99,238.891 364.04,232.432 361.425,227.777C360.647,226.391 359.83,225.191 358.928,224.286C358.662,224.019 358.179,223.677 357.997,223.553Z"/>
    </g>
    <ellipse cx="309.661" cy="189.335" rx="7.528" ry="9.41"/>
    <g transform="matrix(1,0,0,1,96.3614,0)">
        <ellipse cx="309.661" cy="189.335" rx="7.528" ry="9.41"/>
    </g>
    <path d="M290.841,231.117C284.324,232.622 245.547,247.437 247.147,246.806" style="fill:rgb(33,116,149);"/>
    <path d="M244.792,239.501L245.094,239.379C250.384,237.381 283.116,225.023 289.113,223.637C293.241,222.684 297.366,225.261 298.32,229.389C299.274,233.517 296.697,237.642 292.569,238.596C286.835,239.921 255.575,251.833 250.517,253.742C250.376,253.795 250.237,253.844 250.1,253.889L249.964,253.946L250.092,253.891C241.516,256.68 240.395,243.084 240.417,243.046C240.445,242.996 241.145,240.921 244.329,239.665C244.483,239.604 244.637,239.549 244.792,239.501ZM253.68,250.835C252.914,252.079 251.788,253.116 250.378,253.768C252.566,252.787 253.42,251.384 253.68,250.835Z"/>
    <g transform="matrix(1,0,0,1,-11.2923,-20.3262)">
        <path d="M293.852,233.375C276.796,233.891 265.12,233.024 248.652,235.513" style="fill:rgb(33,116,149);"/>
        <path d="M293.62,225.702C276.218,226.228 264.307,225.383 247.505,227.923C243.316,228.556 240.429,232.471 241.062,236.661C241.695,240.85 245.611,243.737 249.8,243.103C265.933,240.665 277.374,241.553 294.084,241.048C298.319,240.92 301.653,237.378 301.525,233.143C301.397,228.908 297.855,225.574 293.62,225.702Z"/>
    </g>
    <g transform="matrix(1.14276,0,0,-2.93836,148.945,932.052)">
        <path d="M278.324,231.885C271.687,233.878 258.2,235.032 248.652,235.513" style="fill:rgb(33,116,149);"/>
        <path d="M282.43,233.953C275.047,236.17 260.137,237.569 249.516,238.104C245.839,238.289 242.467,237.279 241.991,235.849C241.514,234.419 244.112,233.108 247.789,232.922C256.264,232.495 268.327,231.587 274.218,229.818C277.152,228.936 281.375,229.147 283.641,230.289C285.907,231.43 285.364,233.072 282.43,233.953Z"/>
    </g>
    <g transform="matrix(1,0,0,1,192.723,-15.8093)">
        <path d="M282.56,234.128C265.503,234.643 265.12,233.024 248.652,235.513" style="fill:rgb(33,116,149);"/>
        <path d="M282.328,226.455C264.81,226.984 264.418,225.366 247.505,227.923C243.316,228.556 240.429,232.471 241.062,236.661C241.695,240.85 245.611,243.737 249.8,243.103C265.822,240.681 266.197,242.302 282.791,241.801C287.026,241.673 290.361,238.131 290.233,233.896C290.105,229.661 286.563,226.327 282.328,226.455Z"/>
    </g>
    <g transform="matrix(0.944431,-0.47236,0.47236,0.944431,-47.2245,146.098)">
        <path d="M291.036,137.718C290.407,138.826 289.739,140.126 289.181,141.486C287.66,145.198 283.411,146.978 279.698,145.456C275.986,143.935 274.207,139.686 275.728,135.973C278.568,129.041 281.463,125.173 283.853,123.18C287.127,120.448 290.298,119.953 293.092,120.409C295.884,120.864 298.6,122.494 300.785,125.266C303.637,128.885 305.647,134.957 306.292,138.83C306.952,142.788 304.274,146.536 300.317,147.196C296.359,147.855 292.611,145.178 291.951,141.22C291.786,140.23 291.476,138.979 291.036,137.718Z"/>
    </g>
    <g transform="matrix(0.994249,-0.10709,0.10709,0.994249,-17.0549,44.8529)">
        <path d="M424.209,144.629C422.808,146.494 420.578,147.702 418.068,147.702C413.831,147.702 410.391,144.262 410.391,140.025C410.391,137.207 412.097,133.419 416.337,130.828C419.413,128.948 424.083,127.429 427.356,127.05C430.223,126.717 432.522,127.255 433.856,127.895C436.976,129.392 438.928,131.946 439.832,135.217C440.833,138.842 439.963,143.974 439.375,146.8C438.51,150.948 434.442,153.614 430.294,152.75C426.467,151.953 423.902,148.427 424.209,144.629Z"/>
    </g>
    <path d="M340.527,213.197C350.565,213.197 360.602,213.197 370.64,213.197C374.877,213.197 378.316,209.757 378.316,205.521C378.316,201.284 374.877,197.844 370.64,197.844C360.602,197.844 350.565,197.844 340.527,197.844C336.29,197.844 332.851,201.284 332.851,205.521C332.851,209.757 336.29,213.197 340.527,213.197Z"/>
</svg>
